<?xml version="1.0" encoding="UTF-8" standalone="no"?>
<!DOCTYPE svg PUBLIC "-//W3C//DTD SVG 1.1//EN" "http://www.w3.org/Graphics/SVG/1.1/DTD/svg11.dtd">
<svg viewBox="0 0 262 57" width="450" height="100" preserveAspectRatio="xMidYMid meet" version="1.1" xmlns="http://www.w3.org/2000/svg" xmlns:xlink="http://www.w3.org/1999/xlink" xml:space="preserve" xmlns:serif="http://www.serif.com/" style="fill-rule:evenodd;clip-rule:evenodd;stroke-linejoin:round;stroke-miterlimit:1.41421;">
<path d="M204.673,24.246l0,19.138l-8.254,0l0,-2.788l-6.756,0l-1.662,2.788l-9.169,0l9.015,-15l7.777,0l-4.371,-4.138l13.42,0Zm-8.254,11.742l0,-6.893l-0.053,0l-4.236,6.893l4.289,0Z" style="fill:#1b1b1b;fill-rule:nonzero;"/>
<path d="M122.825,24.246l0,19.138l-8.254,0l0,-2.788l-6.756,0l-1.662,2.788l-9.169,0l9.015,-15l7.584,0l-4.371,-4.138l13.613,0Zm-8.254,11.742l0,-6.893l-0.054,0l-4.235,6.893l4.289,0Z" style="fill:#1b1b1b;fill-rule:nonzero;"/>
<path d="M145.078,24.246c3.645,0 4.422,1.554 4.422,4.26c0,4.828 -2.68,7.023 -6.137,7.023l-1.447,0l5.547,7.855l-9.568,0l-3.968,-6.646l-1.716,6.646l-8.176,0l4.097,-15l7.745,0l-5.764,-4.138l14.965,0Zm-6.513,9.33c1.877,-0.001 2.681,-1.396 2.681,-2.63c0,-0.912 -0.643,-1.342 -1.769,-1.342l-3.566,0l-1.019,3.972l3.673,0Z" style="fill:#1b1b1b;fill-rule:nonzero;"/>
<path d="M165.453,34.539l0.054,0l5.656,-10.293l11.205,0l-5.201,19.138l-8.015,0l2.708,-10.132l-0.054,0l-6.326,10.132l-4.772,0l-0.75,-10.454l-0.054,0l-2.841,10.454l-7.881,0l3.866,-15l7.73,0l-5.764,-4.138l10.439,0l0,10.293Z" style="fill:#1b1b1b;fill-rule:nonzero;"/>
<path d="M228.453,24.246l-1.716,6.324l-5.388,0l-3.323,12.814l-8.337,0l3.324,-12.814l-5.414,0l0.592,-2.186l7.648,0l-5.764,-4.138l18.378,0Z" style="fill:#1b1b1b;fill-rule:nonzero;"/>
<path d="M261.213,24.246l0,19.138l-8.254,0l0,-2.788l-6.755,0l-1.663,2.788l-9.168,0l9.014,-15l7.663,0l-4.371,-4.138l13.534,0Zm-8.254,11.742l0,-6.893l-0.053,0l-4.236,6.893l4.289,0Z" style="fill:#1b1b1b;fill-rule:nonzero;"/>
<path d="M75.296,43.063c3.565,0.643 7.21,0.884 11.498,0.884c5.283,0 7.963,-0.509 9.624,-3.188c0.563,-0.911 1.26,-3.003 1.26,-4.506c0,-4.018 -2.68,-4.152 -5.735,-4.152c-4.21,0 -4.747,-0.215 -4.747,-0.993c0,-0.913 0.752,-1.37 3.943,-1.37c2.626,0 5.199,0.269 7.799,0.591l1.689,-5.923c-3.914,-0.589 -8.228,-0.723 -10.908,-0.723c-1.986,0 -4.587,0.054 -6.382,0.563c-3.216,0.911 -5.36,4.26 -5.36,8.391c0,3 2.706,3.831 5.172,3.831c4.799,0 5.283,0.187 5.283,1.127c0,1.262 -1.88,1.262 -2.764,1.262c-3.082,0 -6.11,-0.242 -9.166,-0.618l-1.206,4.824Z" style="fill:#1b1b1b;fill-rule:nonzero;"/>
<path id="i-cut" serif:id="i cut" d="M238.72,24.246l-5.199,19.138l-8.068,0l3.971,-15l7.467,0l-5.764,-4.138l7.593,0Z" style="fill:#1b1b1b;fill-rule:nonzero;"/>
<path d="M16.172,14.413c-2.444,-0.843 -5.671,-1.774 -9.762,-2.609c0,0 11.354,-3.313 22.029,-0.597c0,0 -3.341,-2.334 -5.623,-2.334c0,0 5.704,-1.061 12.957,1.954c0,0 -8.863,-8.154 -14.292,-10.827c0,0 8.801,1.847 18.507,8.873c0,0 -2.153,-2.967 -5.034,-4.31c6.596,2.185 10.408,4.969 14.226,7.895c-0.494,-0.704 -1.339,-1.693 -2.604,-2.487c6.831,1.042 15.453,3.146 22.542,7.4c0,0 -0.677,2.264 -2.248,5.758c-1.013,0.045 -2.173,-0.193 -3.096,-0.449c1.624,0.653 3.686,1.186 5.025,0.452c0.902,-0.428 1.414,-0.423 1.515,-0.406c0.194,0.039 1.389,0.699 1.593,1.753c0.051,0.265 0.879,1.471 0,3.651c0,0 -1.174,2.129 -2.934,2.847c0,0 0.522,-1 0.413,-1.913c0,0 -1.087,1.608 -3.107,2.086c0,0 1.26,-1.738 1.151,-3.324c0,0 -0.239,0.347 -2.433,0.869c0,0 -0.109,0.826 -1.13,1.26c0,0 0.543,-1.108 0.217,-1.26c0,0 -5.65,-1.13 -7.28,0.913c5.476,-0.5 4.672,2.173 8.193,3.216c-2.912,1.021 -4.759,-2.565 -8.453,-0.718c-1.174,0.761 1.542,3.173 2.629,2.065c0,0 -1.583,3.672 1.957,1.912c0,0 1.433,-1.043 3.149,-2.477c0,0 -1.238,8.757 -9.191,9.517c0,0 1.87,-3.307 -0.989,-4.251c0.971,0.671 1.161,1.645 1.104,2.462c-5.081,5.755 -11.773,11.298 -20.418,14.988l-0.152,-0.065c-15.293,-6.584 -24.448,-18.967 -29.379,-27.995c-0.742,0.084 -1.531,0.219 -2.239,0.433c0,0 1.757,-1.391 4.299,-3.017c-0.781,0.146 -2.002,0.611 -2.858,1.083c-0.927,-1.791 -1.675,-3.415 -2.263,-4.79c-0.765,0.155 -1.502,0.332 -2.193,0.535c0,0 1.002,-0.616 2.837,-1.436c-0.294,0.06 -0.61,0.127 -0.939,0.201c-1.002,-2.417 -1.446,-3.9 -1.446,-3.9c2.743,-1.645 5.715,-2.969 8.724,-4.035c1.35,0.006 4.08,0.151 6.996,1.077Zm18.82,36.791c1.228,-1.058 2.165,-1.197 2.165,-1.197c-0.29,-0.471 0,-1.992 0,-1.992c-3.224,-0.036 -7.751,-3.694 -7.751,-3.694c-0.471,1.304 -0.615,3.694 -0.615,3.694c2.119,1.026 5.692,3.02 6.085,3.24l0.078,-0.034l0.038,-0.017Zm16.702,-12.566c-1.595,0.083 -3.791,0.513 -6.795,1.47c0,0 0.625,-3.667 -0.38,-3.532c0,0 -3.694,3.124 -2.825,10.539l0,0.397c3.877,-2.605 7.2,-5.701 10,-8.874Zm-20.73,0.033c0,0 3.838,3.767 7.134,4.346c0,0 -0.76,2.101 -0.724,3.73c0,0 -4.382,-1.883 -7.388,-4.49c-0.126,0.049 0.346,-1.827 0.978,-3.586l0,0Zm22.689,-22.866c1.696,1.193 3.563,2.381 5.783,3.535c0,0 0.643,0.298 0.643,0.914c0,0.616 0.431,0.883 1.051,1.504c0.621,0.621 0.615,1.273 0.615,1.816c-1.444,-1.447 -5.646,-4.008 -8.298,-5.044c0,0 -2.576,-1.475 -6.332,-5.231c0,0 0.9,2.592 1.071,3.725c0,0 -5.867,-4.423 -8.848,-5.572c0,0 1.475,2.282 1.475,3.648c0,0 -5.246,-1.025 -11.579,1.924c-6.333,2.949 -15.149,13.38 -16.111,15.522c0,0 0.007,0.011 0.02,0.033c0.477,0.688 0.979,1.386 1.506,2.089c0.349,0.4 0.724,0.762 1.082,0.982c0,0 6.475,-13.28 13.972,-16.058c0,0 -8.873,7.6 -10.492,20.007c0,0 0.921,1.583 2.695,2.851c0,0 -1.412,-1.211 -1.702,-2.851c0,0 1.739,-8.738 7.678,-14.316c5.94,-5.577 10.793,-8.329 24.627,-4.273c0,0 0.261,0.17 0.537,0.511c-0.622,-1.351 -1.936,-2.464 -1.936,-2.464c8.692,0.136 10.159,6.274 10.159,6.274c-3.166,-1.594 -6.581,-2.234 -7.601,-2.398c0.044,0.311 0.04,0.66 -0.036,1.047c0,0 -6.584,-0.631 -8.171,2.607c0,0 1.956,-0.261 3.347,0c0,0 -2.782,1.76 -3.347,3.021c0,0 12.517,-3.825 25.316,-3.021c0.039,-0.127 0.081,-0.254 0.122,-0.381c-0.07,-0.419 -0.222,-0.936 -0.55,-1.252c-0.033,-0.014 -0.045,-0.02 -0.027,-0.024c0.009,0.008 0.018,0.016 0.027,0.024c0.116,0.051 0.495,0.204 0.705,0.71c0.175,-0.747 0.118,-1.468 -0.951,-2.09c-0.698,0.033 -1.192,0.944 -1.074,1.507c0,0 -6.658,-0.756 -7.741,-3.62c0,0 0.46,0.279 1.171,0.63c0.809,-1.737 1.199,-2.787 1.199,-2.787c-3.53,-1.507 -6.898,-2.643 -10.005,-3.499Zm-20.661,18.991c0,0 2.861,2.897 6.7,3.911c0,0 -0.688,1.639 -1.087,3.137c0,0 -5.505,-3.788 -6.953,-4.549c0,0 0.434,-1.63 1.34,-2.499l0,0Zm1.014,-1.956c0,0 3.802,4.129 6.664,4.455c0,0 0.579,-1.412 2.028,-2.861c0,0 -0.761,-0.942 -2.898,-0.543c0,0 -1.303,0.326 -1.883,1.303l0,-5.758c0,0 -2.861,1.304 -3.911,3.404Zm7.279,-9.126c0,0 2.282,0.259 2.753,1.216c0,0 0.217,-1.615 3.368,-2.448c0,0 -2.68,-0.724 -6.121,1.232Zm-32.768,1.215c2.595,-1.573 5.757,-3.2 8.677,-3.919c0,0 -5.116,-0.208 -10.436,0.307c0.423,0.943 1.007,2.176 1.759,3.612Zm46.898,-2.411c0.038,-0.033 2.393,0.368 3.169,1.016c0,0 -0.742,-2.644 -4.508,-3.06c0,0 1.139,0.904 1.339,2.044c-0.001,0 0,0.001 0.001,0.002l-0.001,-0.002Zm-37.126,-7.326c-3.736,0.902 -7.927,2.213 -12.376,4.112c0,0 0.06,0.164 0.184,0.469c3.892,-1.373 9.455,-2.749 16.122,-2.749c0,0 -1.241,-0.774 -3.93,-1.832Z" style="fill:url(#_Linear1);"/>
<defs>

<linearGradient id="_Linear1" x1="0" y1="0" x2="1" y2="0" gradientUnits="userSpaceOnUse" gradientTransform="matrix(63.7451,-35.0007,35.0007,63.7451,7.07461,47.523)">
<stop offset="0" style="stop-color:#1e0633;stop-opacity:1"/>
<stop offset="1" style="stop-color:#bf1f2e;stop-opacity:1"/>
</linearGradient>
</defs>
</svg>